<svg xmlns="http://www.w3.org/2000/svg" viewBox="0 0 64 64" fill="none">
  <rect width="64" height="64" rx="16" fill="#F6EBC8"/>
  <path d="M20 18c4.5-5 8-6 12-6s7.5 1 12 6" stroke="#D2A24D" stroke-width="2.5" stroke-linecap="round"/>
  <ellipse cx="23" cy="19" rx="5" ry="4" stroke="#D2A24D" stroke-width="2.5"/>
  <ellipse cx="32" cy="16" rx="5" ry="4.2" stroke="#D2A24D" stroke-width="2.5"/>
  <ellipse cx="41" cy="18" rx="4.8" ry="4" stroke="#D2A24D" stroke-width="2.5"/>
  <path d="M31 24c-7 8-8 18-6 27" stroke="#225A46" stroke-width="2.8" stroke-linecap="round"/>
  <path d="M31 24c5 4 7 12 7 20" stroke="#225A46" stroke-width="2.8" stroke-linecap="round"/>
  <path d="M31 28c-3-4-7-6-10-7" stroke="#6EA86A" stroke-width="2.2" stroke-linecap="round"/>
  <path d="M34 31c4-3 8-4 11-4" stroke="#6EA86A" stroke-width="2.2" stroke-linecap="round"/>
  <path d="M28 39c-5 2-8 6-10 11" stroke="#6EA86A" stroke-width="2.2" stroke-linecap="round"/>
  <path d="M37 40c4 2 7 6 9 11" stroke="#6EA86A" stroke-width="2.2" stroke-linecap="round"/>
  <circle cx="27" cy="41" r="5" fill="#EF7B6A"/>
  <circle cx="41" cy="40" r="5" fill="#6DB6E8"/>
  <circle cx="34" cy="30" r="4.5" fill="#F16C2C"/>
</svg>
