<svg xmlns="http://www.w3.org/2000/svg" viewBox="0 0 32 32" role="img" aria-label="WhatsApp">
  <path fill="#fff" d="M16.04 3A12.82 12.82 0 0 0 5.08 22.47L3 29l6.72-2.03A12.86 12.86 0 1 0 16.04 3Zm0 23.45c-2.06 0-4.07-.6-5.79-1.73l-.42-.27-3.99 1.2 1.23-3.88-.28-.43A10.55 10.55 0 1 1 16.04 26.45Zm5.79-7.9c-.32-.16-1.87-.92-2.16-1.03-.29-.11-.5-.16-.71.16-.21.32-.82 1.03-1 1.24-.18.21-.37.24-.68.08-.32-.16-1.34-.49-2.55-1.58a9.58 9.58 0 0 1-1.76-2.19c-.18-.32-.02-.49.14-.65.14-.14.32-.37.47-.55.16-.18.21-.32.32-.53.1-.21.05-.4-.03-.55-.08-.16-.71-1.71-.97-2.34-.25-.62-.51-.54-.71-.55h-.61c-.21 0-.55.08-.84.4-.29.32-1.1 1.08-1.1 2.63s1.13 3.05 1.29 3.26c.16.21 2.22 3.39 5.38 4.75.75.32 1.34.52 1.8.66.76.24 1.44.21 1.99.13.61-.09 1.87-.76 2.13-1.5.26-.74.26-1.37.18-1.5-.08-.13-.29-.21-.61-.37Z"/>
</svg>
